<svg id="Gruppe_481" data-name="Gruppe 481" xmlns="http://www.w3.org/2000/svg" xmlns:xlink="http://www.w3.org/1999/xlink" width="42" height="38.612" viewBox="0 0 42 38.612">
  <defs>
    <clipPath id="clip-path">
      <rect id="Rechteck_184" data-name="Rechteck 184" width="42" height="38.612" fill="#efb754" stroke="#efb754" stroke-width="1"/>
    </clipPath>
  </defs>
  <g id="Gruppe_480" data-name="Gruppe 480" transform="translate(0 0)" clip-path="url(#clip-path)">
    <path id="Pfad_367" data-name="Pfad 367" d="M29.284,32.333c3.047-.86,8.9-2.359,12.717-2.415V28.405c-5.088.078-13.277,2.494-14.9,2.994-.934-.414-1.876-.845-2.81-1.289a28.233,28.233,0,0,0-8.712-2.577L14.9,24.059a9.725,9.725,0,0,0,1.659.121h.007a8.758,8.758,0,0,0,2.84-.407,7.476,7.476,0,0,1,2.428-.347,7.455,7.455,0,0,1,2.425.347,9.031,9.031,0,0,0,2.841.407,8.773,8.773,0,0,0,2.841-.407,7.513,7.513,0,0,1,2.433-.347,7.513,7.513,0,0,1,2.433.347,9.083,9.083,0,0,0,2.849.407,8.851,8.851,0,0,0,2.848-.407,7.856,7.856,0,0,1,1.5-.305V21.955a8.567,8.567,0,0,0-1.9.371,8.7,8.7,0,0,1-4.868,0,9.075,9.075,0,0,0-2.848-.406,8.868,8.868,0,0,0-2.849.406,7.509,7.509,0,0,1-2.433.347,7.469,7.469,0,0,1-2.426-.347,9.017,9.017,0,0,0-2.84-.406,8.768,8.768,0,0,0-2.841.406,7.47,7.47,0,0,1-2.427.347,7.649,7.649,0,0,1-1.967-.219l-1.515-7.8,10.352-2.012a.746.746,0,0,0,.6-.882l-.143-.738A12.054,12.054,0,0,0,10.5,1.387l-.15-.776A.752.752,0,0,0,8.871.9l.151.777a12.034,12.034,0,0,0-8.8,13.94l.143.738a.75.75,0,0,0,.738.61.463.463,0,0,0,.143-.014l5.914-1.154,4.439-.866,1.379,7.105a9.932,9.932,0,0,0-1.688-.128,8.768,8.768,0,0,0-2.841.406,7.465,7.465,0,0,1-2.426.347A7.47,7.47,0,0,1,3.6,22.311a9.024,9.024,0,0,0-1.941-.373v1.527a7.57,7.57,0,0,1,1.52.308,9.018,9.018,0,0,0,2.841.407,8.759,8.759,0,0,0,2.84-.407,7.474,7.474,0,0,1,2.427-.347,7.144,7.144,0,0,1,2,.234l.723,3.729A32.023,32.023,0,0,0,1.656,29.274v1.584a32.772,32.772,0,0,1,10.688-2.031c.642,0,1.3.024,1.975.078l.7,3.587a8.4,8.4,0,0,0-2.056.475.753.753,0,1,0,.534,1.408,6.706,6.706,0,0,1,5.192.188.8.8,0,0,0,.316.076.751.751,0,0,0,.323-1.432,7.91,7.91,0,0,0-2.772-.724L15.9,29.093a27.089,27.089,0,0,1,7.763,2.381A154.035,154.035,0,0,0,42,38.612V37.034c-2.181-.695-7.174-2.365-12.717-4.7M6.137,14.467,1.7,15.334A10.549,10.549,0,0,1,6.78,4.2c-1.134,2.411-1.441,6.158-.643,10.266M22.406,11.3V11.3l-4.44.859a20.223,20.223,0,0,0-3.171-7.851,9.951,9.951,0,0,0-1.251-1.432A10.564,10.564,0,0,1,22.406,11.3M7.613,14.182c-1.183-6.1.325-10.813,2.427-11.22a1.59,1.59,0,0,1,.331-.029c.995,0,2.14.806,3.21,2.276a18.6,18.6,0,0,1,2.909,7.248Z" transform="translate(0 0)" fill="#efb754" stroke="#efb754" stroke-width="1"/>
  </g>
</svg>
