<svg id="Gruppe_485" data-name="Gruppe 485" xmlns="http://www.w3.org/2000/svg" xmlns:xlink="http://www.w3.org/1999/xlink" width="42" height="45.231" viewBox="0 0 42 45.231">
  <defs>
    <clipPath id="clip-path">
      <rect id="Rechteck_186" data-name="Rechteck 186" width="42" height="45.231" fill="#efb754" stroke="#efb754" stroke-width="1"/>
    </clipPath>
  </defs>
  <g id="Gruppe_484" data-name="Gruppe 484" clip-path="url(#clip-path)">
    <path id="Pfad_369" data-name="Pfad 369" d="M12.737,0A7.134,7.134,0,0,0,5.654,7.331c0,.872.011,1.032.02,1.18,0,.009,0,.018,0,.027A7.24,7.24,0,0,0,0,15.718a7.339,7.339,0,0,0,2.43,5.592A7.339,7.339,0,0,0,0,26.9a6.928,6.928,0,0,0,7.145,7.02h.149A9.006,9.006,0,0,0,9.8,33.69a7.265,7.265,0,0,0,1.5,2.132v7.794H2.423a.808.808,0,1,0,0,1.615H41.192a.808.808,0,1,0,0-1.615H33.923V34.731h6.462a.808.808,0,0,0,.745-1.118l-3.236-7.767h.876a.808.808,0,0,0,.745-1.118l-3.236-7.767h.876a.808.808,0,0,0,.723-1.169L31.415,2.87a.842.842,0,0,0-1.446,0L26.889,9.03a7.225,7.225,0,0,0-6.7-4.184c-.12,0-.237-.006-.355-.014-.078,0-.161-.01-.245-.013A7.378,7.378,0,0,0,12.737,0m0,1.615a5.769,5.769,0,0,1,5.5,4.257.81.81,0,0,0,.923.578,2.587,2.587,0,0,1,.582,0c.149.009.3.017.45.017a5.558,5.558,0,0,1,5.614,4.457.769.769,0,0,0,.063.153l-2.362,4.722a.807.807,0,0,0,.723,1.169h.876l-3.237,7.767a.808.808,0,0,0,.746,1.118h.876l-3.237,7.767a.805.805,0,0,0,.074.758.792.792,0,0,0,.238.225,5.7,5.7,0,0,1-9.54-2.208.808.808,0,0,0-1.154-.462,4.038,4.038,0,0,1-1.85.376c-.233.006-.476.006-.726.006H7.145a5.288,5.288,0,0,1-5.529-5.4,5.526,5.526,0,0,1,2.6-4.9.808.808,0,0,0,0-1.384,5.523,5.523,0,0,1-2.6-4.9,5.536,5.536,0,0,1,4.96-5.687.808.808,0,0,0,.729-.8c0-.568-.01-.69-.018-.82s-.017-.281-.017-1.077a5.537,5.537,0,0,1,5.468-5.716M30.692,5.038l5.155,10.309H25.537Zm-16.676,7.9a.8.8,0,0,0-.319.023.807.807,0,0,0-.561.994,7.377,7.377,0,0,0,3.491,4.434.8.8,0,0,0,.391.1.809.809,0,0,0,.395-1.514,5.749,5.749,0,0,1-2.722-3.456.807.807,0,0,0-.674-.584m12.839,4.019h7.673l3.029,7.269H23.827Zm-16.25,3.55A.808.808,0,0,0,10.078,22a5.713,5.713,0,0,1,2.5,3.14.807.807,0,1,0,1.536-.5,7.326,7.326,0,0,0-3.21-4.029.808.808,0,0,0-.3-.107M25.24,25.846h10.9l3.029,7.269H22.212Zm1.413,3.231a.808.808,0,0,0-.808.808V31.5a.808.808,0,0,0,1.615,0V29.885a.808.808,0,0,0-.808-.808m4.038,0a.808.808,0,0,0-.808.808V31.5a.808.808,0,0,0,1.615,0V29.885a.808.808,0,0,0-.808-.808m4.038,0a.808.808,0,0,0-.808.808V31.5a.808.808,0,0,0,1.615,0V29.885a.808.808,0,0,0-.808-.808M22.538,34.731h4.924v8.885H17.769V37.831a7.307,7.307,0,0,0,4.769-3.1m6.539,0h3.231v8.885H29.077Zm-16.154,2.3a7.306,7.306,0,0,0,3.231.905v5.676H12.923Z" fill="#efb754" stroke="#efb754" stroke-width="1"/>
  </g>
</svg>
