<svg id="Gruppe_483" data-name="Gruppe 483" xmlns="http://www.w3.org/2000/svg" xmlns:xlink="http://www.w3.org/1999/xlink" width="42" height="45.341" viewBox="0 0 42 45.341">
  <defs>
    <clipPath id="clip-path">
      <rect id="Rechteck_185" data-name="Rechteck 185" width="42" height="45.341" fill="#efb754"/>
    </clipPath>
  </defs>
  <g id="Gruppe_482" data-name="Gruppe 482" clip-path="url(#clip-path)">
    <path id="Pfad_368" data-name="Pfad 368" d="M24.818,0,23.267,2.267s-1.506,2.11-2.983,4.653a41.035,41.035,0,0,0-2.028,4A9.562,9.562,0,0,0,17.182,14.8a7.636,7.636,0,0,0,15.273,0,9.562,9.562,0,0,0-1.074-3.877,41.035,41.035,0,0,0-2.028-4c-1.477-2.543-2.983-4.653-2.983-4.653Zm0,6.92c.493.761.589.872,1.193,1.909a39.156,39.156,0,0,1,1.909,3.64,8.723,8.723,0,0,1,.716,2.326A3.818,3.818,0,1,1,21,14.8a8.723,8.723,0,0,1,.716-2.326,39.156,39.156,0,0,1,1.909-3.64c.6-1.037.7-1.148,1.193-1.909M7.636,15.273,6.085,17.54S4.579,19.65,3.1,22.193a41.129,41.129,0,0,0-2.028,4A9.57,9.57,0,0,0,0,30.068a7.636,7.636,0,1,0,15.273,0A9.57,9.57,0,0,0,14.2,26.19a41.129,41.129,0,0,0-2.028-4C10.694,19.65,9.188,17.54,9.188,17.54Zm0,6.92c.493.761.589.872,1.193,1.909a39.265,39.265,0,0,1,1.909,3.639,8.736,8.736,0,0,1,.716,2.327,3.818,3.818,0,0,1-7.636,0,8.736,8.736,0,0,1,.716-2.327A39.265,39.265,0,0,1,6.443,24.1c.6-1.037.7-1.148,1.193-1.909m26.727.716-1.551,2.267s-1.506,2.111-2.983,4.653a41.129,41.129,0,0,0-2.028,4A9.57,9.57,0,0,0,26.727,37.7,7.636,7.636,0,0,0,42,37.7a9.57,9.57,0,0,0-1.074-3.878,41.129,41.129,0,0,0-2.028-4c-1.477-2.543-2.983-4.653-2.983-4.653Zm0,6.92c.493.761.589.872,1.193,1.909a39.265,39.265,0,0,1,1.909,3.639,8.736,8.736,0,0,1,.716,2.327,3.818,3.818,0,0,1-7.636,0,8.736,8.736,0,0,1,.716-2.327,39.266,39.266,0,0,1,1.909-3.639c.6-1.037.7-1.148,1.193-1.909" fill="#efb754"/>
  </g>
</svg>
