<svg id="Gruppe_479" data-name="Gruppe 479" xmlns="http://www.w3.org/2000/svg" xmlns:xlink="http://www.w3.org/1999/xlink" width="42" height="40.095" viewBox="0 0 42 40.095">
  <defs>
    <clipPath id="clip-path">
      <rect id="Rechteck_183" data-name="Rechteck 183" width="42" height="40.095" fill="#efb754"/>
    </clipPath>
  </defs>
  <g id="Gruppe_478" data-name="Gruppe 478" clip-path="url(#clip-path)">
    <path id="Pfad_366" data-name="Pfad 366" d="M3.508,0A17.713,17.713,0,0,0,0,.35L.636,3.492a14.522,14.522,0,0,1,2.872-.285c6.152,0,9.657,1.662,11.7,3.791a10.529,10.529,0,0,1,2.735,7.436v.485l4.739,7.1a.389.389,0,0,1-.225.633l-4.514,1.438v4.78A4.967,4.967,0,0,1,16.4,32.136a4.941,4.941,0,0,1-3.273,1.544H9.924V40.1h3.208V36.888A7.942,7.942,0,0,0,18.679,34.4a7.944,7.944,0,0,0,2.471-5.532V26.432l2.281-.723a3.67,3.67,0,0,0,1.917-5.473l-4.3-6.44a13.422,13.422,0,0,0-3.53-9.018C14.769,1.911,10.254,0,3.508,0m9.623,16.038a1.6,1.6,0,1,0,1.6,1.6,1.6,1.6,0,0,0-1.6-1.6m22.453,1.6V20.85h1.6a1.6,1.6,0,0,1,0,3.208H29.169v3.208h8.019a4.811,4.811,0,1,0,0-9.623ZM24.358,30.473V33.68h9.623a1.6,1.6,0,0,1,0,3.208h-1.6V40.1h1.6a4.811,4.811,0,0,0,0-9.623Z" fill="#efb754"/>
  </g>
</svg>
