<svg xmlns="http://www.w3.org/2000/svg" xmlns:xlink="http://www.w3.org/1999/xlink" width="42" height="42.032" viewBox="0 0 42 42.032">
  <defs>
    <clipPath id="clip-path">
      <rect id="Rechteck_187" data-name="Rechteck 187" width="42" height="42.032" transform="translate(0 0)" fill="#efb754" stroke="#efb754" stroke-width="1"/>
    </clipPath>
  </defs>
  <g id="Gruppe_487" data-name="Gruppe 487" transform="translate(140 -47)">
    <g id="Gruppe_486" data-name="Gruppe 486" transform="translate(-140 47)" clip-path="url(#clip-path)">
      <path id="Pfad_370" data-name="Pfad 370" d="M9.375,22.068,7.114,19.807a3.032,3.032,0,0,1,0-4.291l.428-.429a4.979,4.979,0,0,0-4.921-4.31H1.4V12A4.958,4.958,0,0,0,3.178,15.8a.7.7,0,1,1-.9,1.073A6.353,6.353,0,0,1,0,12v-1.92a.7.7,0,0,1,.7-.7H2.621a6.392,6.392,0,0,1,6.1,4.536l.657-.657A13.36,13.36,0,0,1,16.663,9.5a.7.7,0,1,1,.23,1.381,11.962,11.962,0,0,0-6.528,3.365L8.1,16.506a1.631,1.631,0,0,0,0,2.31l2.261,2.261a12.06,12.06,0,0,0,17.188-.146.7.7,0,0,1,.991.991,13.463,13.463,0,0,1-19.169.146m-1.856.448a.7.7,0,0,0-.984.12,4.937,4.937,0,0,1-3.914,1.91H1.4v-1.22a4.952,4.952,0,0,1,2.265-4.167A.7.7,0,1,0,2.9,17.983,6.349,6.349,0,0,0,0,23.326v1.92a.7.7,0,0,0,.7.7h1.92A6.33,6.33,0,0,0,7.639,23.5a.7.7,0,0,0-.12-.984m12,.5a.7.7,0,0,0,.347-.928,10.687,10.687,0,0,1,1.412-11.133,11.989,11.989,0,0,1,6.278,3.437,4.593,4.593,0,0,1,1.354,3.269.7.7,0,0,0,1.4,0A5.986,5.986,0,0,0,28.544,13.4a13.383,13.383,0,0,0-7.427-3.9.707.707,0,0,0-.644.231,12.09,12.09,0,0,0-1.884,12.938.7.7,0,0,0,.928.346m4.329-8.194A1.381,1.381,0,1,1,22.465,16.2a1.383,1.383,0,0,1,1.381-1.381m-.02,1.381c0,.022.04.022.04,0a.02.02,0,0,0-.04,0m9.209,22.03a.7.7,0,0,0-.187.973,3.307,3.307,0,0,1,.57,1.863v.263a.7.7,0,0,0,1.4,0,4.788,4.788,0,0,0-.811-2.912.7.7,0,0,0-.973-.187m8.6-8.9a.7.7,0,0,0-.949.284,2.246,2.246,0,0,1-3.087.927,5.111,5.111,0,0,0,.9-2.539.7.7,0,1,0-1.394-.14,3.52,3.52,0,0,1-.863,2.128c-.855.9-2.02.811-3.314,1.194a4.1,4.1,0,0,1,.383-2.958c.509-.785,1.324-1.053,1.809-2.212a.7.7,0,1,0-1.292-.542c-.336.8-1.049,1-1.693,1.991a5.649,5.649,0,0,0-.519,4.326,5.921,5.921,0,0,0-2.18,4.6,4.737,4.737,0,0,0-4.048,4.244H22.007c-.142-2.258-.855-4.369-2.9-5.31a5.359,5.359,0,0,0,1.7-3.979.7.7,0,0,0-1.4.014,3.955,3.955,0,0,1-1.9,3.426,2.859,2.859,0,0,1-1.428-.832,3.755,3.755,0,0,1-.788-2.595.7.7,0,0,0-1.4-.013,5.8,5.8,0,0,0,.5,2.558,1.752,1.752,0,0,1-2.444-1.137.7.7,0,1,0-1.363.325c.51,2.139,2.673,2.818,4.647,2a4.546,4.546,0,0,0,1.993,1.073.693.693,0,0,0,.3.09c1.1.322,2.825.731,3.077,4.381H17.481a.7.7,0,0,0,0,1.4h12.61a.7.7,0,0,0,0-1.4h-3.3a3.332,3.332,0,0,1,3.3-2.89.7.7,0,0,0,.689-.583c.05-.3-.022-2.95,1.49-4.117,1.179-.911,2.8-.544,4.282-1.5a3.653,3.653,0,0,0,5.364-1.26.7.7,0,0,0-.284-.949M30.354,7.837a2.933,2.933,0,1,1,2.934,2.934,2.936,2.936,0,0,1-2.934-2.934m1.4,0A1.532,1.532,0,1,0,33.287,6.3a1.534,1.534,0,0,0-1.533,1.532M27.376,2.8a1.4,1.4,0,1,0-1.4-1.4,1.4,1.4,0,0,0,1.4,1.4" transform="translate(0 0)" fill="#efb754" stroke="#efb754" stroke-width="1"/>
    </g>
  </g>
</svg>
